<svg xmlns="http://www.w3.org/2000/svg" width="30.526" height="22" viewBox="0 0 30.526 22" fill="none">
  <path d="M 19.551 0 L 19.541 0 L 19.531 0 C 16.662 0 13.924 1.129 11.885 3.119 C 10.845 2.679 9.716 2.449 8.556 2.449 C 3.838 2.439 0 6.277 0 10.995 C 0 15.713 3.838 19.551 8.556 19.551 C 9.706 19.551 10.835 19.321 11.875 18.881 C 13.854 20.811 16.562 22 19.531 22 C 25.598 22 30.526 17.072 30.526 11.005 C 30.526 4.938 25.608 0 19.551 0 Z M 19.531 19.551 C 14.813 19.551 10.975 15.713 10.975 10.995 L 8.536 10.995 C 8.536 13.154 9.166 15.163 10.235 16.862 C 9.686 17.022 9.116 17.102 8.546 17.102 C 5.178 17.102 2.439 14.363 2.439 10.995 C 2.439 7.627 5.178 4.888 8.546 4.888 C 9.876 4.888 11.145 5.308 12.214 6.107 C 13.764 7.277 14.663 9.056 14.663 10.995 L 17.102 10.995 C 17.102 8.436 15.993 6.077 14.044 4.448 C 15.573 3.169 17.512 2.449 19.531 2.449 C 24.239 2.449 28.077 6.287 28.077 11.005 C 28.077 15.723 24.239 19.561 19.521 19.561 L 19.531 19.551 Z" fill="currentColor" fill-rule="nonzero"/>
</svg>
