<?xml version="1.0" encoding="UTF-8"?>
<svg id="Layer_2" data-name="Layer 2" xmlns="http://www.w3.org/2000/svg" viewBox="0 0 969.64 158.94">
  <defs>
    
  </defs>
  <g id="Layer_1-2" data-name="Layer 1">
    <path class="cls-1" d="M141.32,0h-.09S141.18,0,141.15,0c-20.74.03-40.5,8.18-55.25,22.52-7.55-3.2-15.68-4.86-24.08-4.86C27.73,17.66,0,45.39,0,79.47s27.73,61.81,61.81,61.81c8.27,0,16.45-1.69,24.02-4.87,14.32,13.93,33.85,22.53,55.36,22.53,43.82,0,79.47-35.65,79.47-79.47S185.08.07,141.32,0ZM141.19,141.28c-34.08,0-61.81-27.73-61.81-61.81h-17.66c0,15.59,4.53,30.13,12.31,42.41-3.96,1.14-8.07,1.74-12.22,1.74-24.34,0-44.15-19.81-44.15-44.15s19.81-44.15,44.15-44.15c9.64,0,18.8,3.05,26.48,8.82,11.23,8.43,17.67,21.31,17.67,35.33h17.66c0-18.49-8.01-35.56-22.08-47.34,11.05-9.27,25.06-14.46,39.69-14.47,34.06.02,61.76,27.74,61.76,61.81s-27.73,61.81-61.81,61.81ZM324.85,55.35c2.25,4.03,3.38,8.69,3.38,13.98v45.51h-17.03v-41.48c0-3.12-.61-5.81-1.82-8.06-1.21-2.25-2.91-3.99-5.07-5.2-2.17-1.21-4.64-1.82-7.41-1.82s-5.25.61-7.41,1.82c-2.17,1.21-3.86,2.95-5.07,5.2-1.22,2.26-1.82,4.94-1.82,8.06v41.48h-17.16V44.1h16.12v8.7c1.64-2.92,3.92-5.24,6.83-6.95,3.77-2.21,8.17-3.32,13.2-3.32s9.82,1.13,13.85,3.38c4.03,2.26,7.17,5.4,9.43,9.43ZM385.98,44.1h17.03v42.91c0,5.81-1.32,10.92-3.97,15.34-2.65,4.42-6.29,7.87-10.92,10.34-4.64,2.47-10.12,3.71-16.45,3.71s-11.73-1.24-16.45-3.71c-4.73-2.47-8.41-5.92-11.05-10.34-2.65-4.42-3.97-9.54-3.97-15.34v-42.91h17.16v42.39c0,2.86.61,5.35,1.82,7.48,1.21,2.13,2.9,3.79,5.07,5.01,2.17,1.21,4.64,1.82,7.41,1.82s5.37-.61,7.54-1.82c2.17-1.21,3.84-2.88,5.01-5.01,1.17-2.12,1.76-4.62,1.76-7.48v-42.39ZM479.54,44.1l-27.83,70.74h-15.08l-27.83-70.74h18.59l16.72,46.17,16.83-46.17h18.59ZM539.97,52.81c-2.95-3.21-6.52-5.72-10.73-7.54-4.21-1.82-9.08-2.73-14.63-2.73-6.68,0-12.66,1.6-17.94,4.81-5.29,3.21-9.49,7.56-12.61,13.07-3.12,5.51-4.68,11.81-4.68,18.92s1.52,13.09,4.55,18.72c3.03,5.64,7.3,10.1,12.81,13.39,5.5,3.3,11.9,4.94,19.18,4.94,4.77,0,9.19-.74,13.26-2.21,4.07-1.47,7.58-3.51,10.53-6.11,2.95-2.6,5.11-5.59,6.5-8.97l-13.78-6.76c-1.56,2.78-3.71,4.99-6.44,6.63-2.73,1.65-6.05,2.47-9.95,2.47s-7.35-.91-10.34-2.73c-2.99-1.82-5.25-4.4-6.76-7.74-.91-2.01-1.48-4.2-1.72-6.57h50.94c.35-1.04.58-2.19.71-3.45.13-1.26.2-2.54.2-3.84,0-4.77-.78-9.21-2.34-13.33-1.56-4.12-3.82-7.78-6.76-10.99ZM505.13,59.31c2.77-1.82,5.94-2.73,9.49-2.73s6.91.91,9.56,2.73c2.64,1.82,4.55,4.29,5.72,7.41.53,1.42.85,2.95.95,4.55h-33.27c.29-1.49.7-2.88,1.24-4.16,1.43-3.38,3.53-5.98,6.31-7.8ZM660.63,55.35c2.25,4.03,3.38,8.69,3.38,13.98v45.51h-17.03v-41.48c0-3.12-.56-5.81-1.69-8.06-1.13-2.25-2.71-3.99-4.75-5.2-2.04-1.21-4.44-1.82-7.22-1.82s-5.07.61-7.15,1.82c-2.08,1.21-3.69,2.95-4.81,5.2-1.13,2.26-1.69,4.94-1.69,8.06v41.48h-17.03v-41.48c0-3.12-.56-5.81-1.69-8.06-1.13-2.25-2.71-3.99-4.75-5.2-2.04-1.21-4.44-1.82-7.22-1.82s-5.07.61-7.15,1.82c-2.08,1.21-3.69,2.95-4.81,5.2-1.13,2.26-1.69,4.94-1.69,8.06v41.48h-17.16V44.1h16.12v8.89c1.44-2.8,3.43-5.03,5.98-6.68,3.9-2.51,8.49-3.77,13.78-3.77,5.81,0,10.92,1.52,15.34,4.55,2.79,1.91,4.95,4.21,6.5,6.88,1.89-2.98,4.23-5.39,7.02-7.21,4.33-2.82,9.32-4.23,14.95-4.23,5.03,0,9.51,1.13,13.46,3.38,3.94,2.26,7.04,5.4,9.3,9.43ZM691.45,63.61c0,1.22.35,2.3,1.04,3.25.69.96,1.67,1.73,2.93,2.34,1.26.61,2.71,1.17,4.36,1.69l11.31,3.38c5.81,1.74,10.29,4.34,13.46,7.8,3.16,3.47,4.75,7.72,4.75,12.74,0,4.25-1.13,8-3.38,11.25-2.25,3.25-5.38,5.79-9.36,7.61-3.99,1.82-8.67,2.73-14.04,2.73-7.54,0-14.11-1.8-19.7-5.4-5.59-3.6-9.47-8.47-11.64-14.63l12.87-6.11c1.82,3.99,4.36,7.11,7.61,9.36,3.25,2.25,6.87,3.38,10.86,3.38,3.03,0,5.46-.69,7.28-2.08,1.82-1.39,2.73-3.21,2.73-5.46,0-1.39-.37-2.54-1.11-3.45-.74-.91-1.71-1.69-2.93-2.34-1.22-.65-2.6-1.19-4.16-1.63l-11.57-3.25c-5.9-1.65-10.38-4.27-13.46-7.87-3.08-3.6-4.62-7.82-4.62-12.68,0-4.33,1.11-8.13,3.32-11.38,2.21-3.25,5.29-5.79,9.23-7.61,3.94-1.82,8.47-2.73,13.59-2.73,6.67,0,12.57,1.6,17.68,4.81,5.11,3.21,8.75,7.72,10.92,13.52l-13,6.11c-1.21-3.21-3.25-5.74-6.11-7.61-2.86-1.86-6.07-2.8-9.62-2.8-2.86,0-5.12.63-6.76,1.89-1.65,1.26-2.47,2.97-2.47,5.14ZM798.2,55.35c2.25,4.03,3.38,8.69,3.38,13.98v45.51h-17.03v-41.48c0-3.12-.61-5.81-1.82-8.06-1.21-2.25-2.88-3.99-5.01-5.2-2.13-1.21-4.62-1.82-7.48-1.82s-5.25.61-7.41,1.82c-2.17,1.21-3.86,2.95-5.07,5.2-1.22,2.26-1.82,4.94-1.82,8.06v41.48h-17.16V17.71h17.16v33.44c1.52-2.15,3.45-3.92,5.79-5.29,3.77-2.21,8.17-3.32,13.2-3.32s9.82,1.13,13.85,3.38c4.03,2.26,7.17,5.4,9.43,9.43ZM867,47.35c-5.64-3.21-11.96-4.81-18.98-4.81s-13.22,1.6-18.85,4.81c-5.64,3.21-10.14,7.59-13.52,13.13-3.38,5.55-5.07,11.88-5.07,18.98s1.69,13.44,5.07,18.98c3.38,5.55,7.91,9.93,13.59,13.13,5.68,3.21,11.94,4.81,18.79,4.81s13.22-1.6,18.85-4.81c5.63-3.21,10.14-7.58,13.52-13.13,3.38-5.55,5.07-11.88,5.07-18.98s-1.67-13.54-5.01-19.05c-3.34-5.5-7.82-9.86-13.46-13.07ZM865.12,90.46c-1.69,3.25-3.99,5.79-6.89,7.61-2.91,1.82-6.31,2.73-10.21,2.73s-7.2-.91-10.14-2.73c-2.95-1.82-5.27-4.36-6.96-7.61-1.69-3.25-2.54-6.91-2.54-10.99s.85-7.71,2.54-10.92c1.69-3.21,4.01-5.72,6.96-7.54,2.95-1.82,6.33-2.73,10.14-2.73s7.3.91,10.21,2.73c2.9,1.82,5.2,4.34,6.89,7.54,1.69,3.21,2.54,6.85,2.54,10.92s-.85,7.74-2.54,10.99ZM964.9,60.74c-3.17-5.55-7.43-9.97-12.81-13.26-5.38-3.29-11.4-4.94-18.07-4.94-5.46,0-10.27,1.06-14.43,3.19-3.33,1.7-6.1,3.96-8.32,6.74v-8.37h-16.12v97.27h17.16v-33.32c2.09,2.22,4.58,4.02,7.48,5.36,4.29,1.99,8.99,2.99,14.11,2.99,6.85,0,12.96-1.63,18.33-4.88,5.37-3.25,9.62-7.69,12.74-13.33,3.12-5.63,4.68-11.88,4.68-18.72s-1.58-13.18-4.75-18.72ZM949.36,90.52c-1.73,3.21-4.1,5.72-7.09,7.54-2.99,1.82-6.44,2.73-10.34,2.73s-7.09-.91-10.08-2.73c-2.99-1.82-5.33-4.33-7.02-7.54-1.69-3.21-2.54-6.89-2.54-11.05s.85-7.71,2.54-10.92c1.69-3.21,4.03-5.72,7.02-7.54,2.99-1.82,6.35-2.73,10.08-2.73s7.35.91,10.34,2.73c2.99,1.82,5.35,4.34,7.09,7.54,1.73,3.21,2.6,6.85,2.6,10.92s-.87,7.85-2.6,11.05Z"></path>
  </g>
</svg>